<mxfile host="app.diagrams.net" modified="2023-04-11T10:15:36.131Z" agent="Mozilla/5.0 (Windows NT 10.0; Win64; x64) AppleWebKit/537.36 (KHTML, like Gecko) Chrome/102.0.5005.167 YaBrowser/22.7.3.822 Yowser/2.5 Safari/537.36" etag="VDeMLMfkk1i26JdNA6gA" version="21.1.5" type="device">
  <diagram name="Страница 1" id="Dxz2ZNsp2zKev1REYlZI">
    <mxGraphModel dx="1002" dy="553" grid="1" gridSize="10" guides="1" tooltips="1" connect="1" arrows="1" fold="1" page="1" pageScale="1" pageWidth="827" pageHeight="1169" math="0" shadow="0">
      <root>
        <mxCell id="0" />
        <mxCell id="1" parent="0" />
        <mxCell id="5CUgKM17tgFGlfs3WcJ7-1" value="Actor" style="shape=umlActor;verticalLabelPosition=bottom;verticalAlign=top;html=1;outlineConnect=0;" vertex="1" parent="1">
          <mxGeometry x="60" y="230" width="30" height="60" as="geometry" />
        </mxCell>
        <mxCell id="5CUgKM17tgFGlfs3WcJ7-2" value="Actor" style="shape=umlActor;verticalLabelPosition=bottom;verticalAlign=top;html=1;outlineConnect=0;" vertex="1" parent="1">
          <mxGeometry x="610" y="210" width="30" height="60" as="geometry" />
        </mxCell>
        <mxCell id="5CUgKM17tgFGlfs3WcJ7-3" value="СЕРВЕР" style="rounded=0;whiteSpace=wrap;html=1;" vertex="1" parent="1">
          <mxGeometry x="280" y="130" width="120" height="60" as="geometry" />
        </mxCell>
        <mxCell id="5CUgKM17tgFGlfs3WcJ7-5" value="Игрок 1 сделал ход(1)" style="endArrow=classic;html=1;rounded=0;strokeColor=#999900;exitX=1;exitY=0.3333333333333333;exitDx=0;exitDy=0;exitPerimeter=0;entryX=-0.027;entryY=0.117;entryDx=0;entryDy=0;entryPerimeter=0;" edge="1" parent="1" source="5CUgKM17tgFGlfs3WcJ7-1" target="5CUgKM17tgFGlfs3WcJ7-3">
          <mxGeometry width="50" height="50" relative="1" as="geometry">
            <mxPoint x="110" y="250" as="sourcePoint" />
            <mxPoint x="160" y="200" as="targetPoint" />
          </mxGeometry>
        </mxCell>
        <mxCell id="5CUgKM17tgFGlfs3WcJ7-6" value="Сервер обработал и вернул итог(2,4)" style="endArrow=classic;html=1;rounded=0;exitX=0.25;exitY=1;exitDx=0;exitDy=0;entryX=1;entryY=1;entryDx=0;entryDy=0;entryPerimeter=0;strokeColor=#009900;" edge="1" parent="1" source="5CUgKM17tgFGlfs3WcJ7-3" target="5CUgKM17tgFGlfs3WcJ7-1">
          <mxGeometry width="50" height="50" relative="1" as="geometry">
            <mxPoint x="220" y="300" as="sourcePoint" />
            <mxPoint x="270" y="250" as="targetPoint" />
          </mxGeometry>
        </mxCell>
        <mxCell id="5CUgKM17tgFGlfs3WcJ7-7" value="Сервер обработал и вернул итог(2,4)" style="endArrow=classic;html=1;rounded=0;exitX=0.69;exitY=1.09;exitDx=0;exitDy=0;entryX=0;entryY=1;entryDx=0;entryDy=0;entryPerimeter=0;strokeColor=#009900;exitPerimeter=0;" edge="1" parent="1" source="5CUgKM17tgFGlfs3WcJ7-3" target="5CUgKM17tgFGlfs3WcJ7-2">
          <mxGeometry width="50" height="50" relative="1" as="geometry">
            <mxPoint x="320" y="200" as="sourcePoint" />
            <mxPoint x="100" y="300" as="targetPoint" />
          </mxGeometry>
        </mxCell>
        <mxCell id="5CUgKM17tgFGlfs3WcJ7-10" value="Игрок 2 сделал ход(3)" style="endArrow=classic;html=1;rounded=0;strokeColor=#999900;exitX=0;exitY=0.3333333333333333;exitDx=0;exitDy=0;exitPerimeter=0;entryX=1;entryY=0;entryDx=0;entryDy=0;" edge="1" parent="1" source="5CUgKM17tgFGlfs3WcJ7-2" target="5CUgKM17tgFGlfs3WcJ7-3">
          <mxGeometry width="50" height="50" relative="1" as="geometry">
            <mxPoint x="453" y="183" as="sourcePoint" />
            <mxPoint x="640" y="70" as="targetPoint" />
          </mxGeometry>
        </mxCell>
        <mxCell id="5CUgKM17tgFGlfs3WcJ7-12" value="После шага 4 шаг 1 до конца партии" style="text;html=1;strokeColor=none;fillColor=none;align=center;verticalAlign=middle;whiteSpace=wrap;rounded=0;" vertex="1" parent="1">
          <mxGeometry x="230" y="270" width="220" height="30" as="geometry" />
        </mxCell>
        <mxCell id="5CUgKM17tgFGlfs3WcJ7-13" value="Сервер хранит информацию о:&lt;br&gt;Очередности ходов игроков&lt;br&gt;Состояние полей(2 поля с модификаторами видимости)&lt;br&gt;Таймер хода" style="text;html=1;strokeColor=none;fillColor=none;align=center;verticalAlign=middle;whiteSpace=wrap;rounded=0;" vertex="1" parent="1">
          <mxGeometry x="180" width="310" height="100" as="geometry" />
        </mxCell>
        <mxCell id="5CUgKM17tgFGlfs3WcJ7-14" value="Клиент хранит:&lt;br&gt;Данные пользователя&lt;br&gt;Рейтинг(Необязательно)&lt;br&gt;" style="text;html=1;strokeColor=none;fillColor=none;align=center;verticalAlign=middle;whiteSpace=wrap;rounded=0;" vertex="1" parent="1">
          <mxGeometry x="45" y="100" width="145" height="30" as="geometry" />
        </mxCell>
      </root>
    </mxGraphModel>
  </diagram>
</mxfile>
